<?xml version="1.0" encoding="UTF-8" standalone="no"?><!DOCTYPE svg PUBLIC "-//W3C//DTD SVG 1.1//EN" "http://www.w3.org/Graphics/SVG/1.1/DTD/svg11.dtd"><svg width="100%" height="100%" viewBox="0 0 14975 2825" version="1.1" xmlns="http://www.w3.org/2000/svg" xmlns:xlink="http://www.w3.org/1999/xlink" xml:space="preserve" xmlns:serif="http://www.serif.com/" style="fill-rule:evenodd;clip-rule:evenodd;stroke-linejoin:round;stroke-miterlimit:2;"><rect id="Artboard3" x="0" y="0" width="14975" height="2825" style="fill:none;"/><g id="Artboard1"><g><path d="M2471.109,445.674l-376.403,1076.368c-0.966,2.83 -3.624,4.728 -6.627,4.728l-158.762,0c-2.278,0 -4.452,-1.139 -5.764,-3.003c-1.312,-1.898 -1.622,-4.314 -0.828,-6.454l453.851,-1233.853c1.035,-2.761 3.658,-4.625 6.592,-4.625l174.293,0c2.934,0 5.591,1.864 6.592,4.625l455.576,1233.853c0.794,2.14 0.483,4.556 -0.828,6.419c-1.312,1.898 -3.451,3.037 -5.764,3.037l-169.116,0c-3.003,0 -5.66,-1.933 -6.661,-4.763l-366.152,-1076.334Zm3120.009,0l-376.403,1076.368c-0.966,2.83 -3.624,4.728 -6.627,4.728l-158.762,0c-2.278,0 -4.452,-1.139 -5.764,-3.003c-1.312,-1.898 -1.622,-4.314 -0.828,-6.454l453.851,-1233.853c1.035,-2.761 3.658,-4.625 6.592,-4.625l174.293,0c2.934,0 5.591,1.864 6.592,4.625l455.576,1233.853c0.794,2.14 0.483,4.556 -0.828,6.419c-1.312,1.898 -3.451,3.037 -5.764,3.037l-169.116,0c-3.003,0 -5.66,-1.933 -6.661,-4.763l-366.152,-1076.334Zm4935.378,928.548c-90.874,119.416 -222.128,178.434 -381.269,178.434c-350.828,0 -586.831,-266.754 -586.831,-645.538c0,-219.747 74.963,-411.123 219.505,-529.159c96.465,-78.76 223.992,-125.007 381.131,-125.007c290.534,0 468.864,157.795 509.107,402.806c0.345,2.036 -0.242,4.107 -1.588,5.695c-1.312,1.553 -3.279,2.485 -5.35,2.485l-160.487,0c-3.313,0 -6.178,-2.347 -6.868,-5.591c-33.823,-160.591 -147.234,-256.71 -338.266,-256.71c-116.724,0 -207.978,34.859 -275.382,95.119c-101.573,90.736 -148.994,238.66 -148.994,410.364c0,297.471 172.739,496.854 419.199,496.854c124.455,0 215.95,-42.072 276.245,-109.787c60.398,-67.819 89.493,-161.108 89.493,-262.819l0,-22.296l-364.013,0c-3.865,0 -7.006,-3.141 -7.006,-7.041l0,-134.602c0,-3.865 3.141,-7.041 7.006,-7.041l526.329,0c3.9,0 7.041,3.175 7.041,7.041l0,652.303c0,3.9 -3.141,7.041 -7.041,7.041l-144.887,0c-3.9,0 -7.041,-3.141 -7.041,-7.041l-0.035,-145.508Zm-10255.648,145.508l0,-1233.853c0,-3.865 3.141,-7.041 7.006,-7.041l448.674,0c150.306,0 268.963,41.002 357.317,113.929c132.255,109.2 196.761,290.361 196.761,514.353c0,186.614 -47.767,341.303 -142.161,449.399c-94.601,108.372 -236.106,170.254 -423.997,170.254l-436.594,0c-3.865,0 -7.006,-3.141 -7.006,-7.041Zm169.357,-143.369l269.066,0c113.963,0 200.592,-29.06 263.441,-82.487c94.567,-80.347 135.085,-215.26 135.085,-386.757c0,-171.6 -36.239,-310.31 -127.458,-393.66c-60.502,-55.29 -145.129,-85.938 -258.988,-85.938l-281.146,0l0,948.842Zm3095.608,-954.157l0,-136.328c0,-3.865 3.141,-7.041 7.006,-7.041l976.728,0c3.9,0 7.041,3.175 7.041,7.041l0,136.328c0,3.9 -3.141,7.041 -7.041,7.041l-403.668,0l0,1090.484c0,3.9 -3.141,7.041 -7.041,7.041l-155.31,0c-3.865,0 -7.006,-3.141 -7.006,-7.041l0,-1090.484l-403.703,0c-3.865,0 -7.006,-3.141 -7.006,-7.041Zm3791.397,1128.725c-175.57,0 -305.236,-49.182 -392.797,-129.563c-87.837,-80.589 -133.532,-192.688 -140.538,-318.869c-0.104,-1.933 0.587,-3.796 1.898,-5.212c1.346,-1.415 3.175,-2.209 5.108,-2.209l151.859,0c3.624,0 6.661,2.761 7.006,6.35c10.147,102.298 46.248,180.16 108.614,232.379c62.538,52.357 151.272,78.794 265.753,78.794c166.32,0 286.357,-74.652 286.357,-224.199c0,-81.59 -35.859,-131.945 -98.294,-167.769c-64.229,-36.826 -155.897,-58.5 -265.477,-82.487l-0.035,0c-220.989,-49.113 -409.294,-113.514 -409.294,-350.276c0,-207.391 171.497,-333.192 426.344,-333.192c156.656,0 267.272,40.139 342.752,108.821c75.584,68.82 116.103,166.423 131.876,282.112c0.276,2.002 -0.345,4.038 -1.657,5.557c-1.346,1.519 -3.279,2.416 -5.315,2.416l-146.682,0c-3.52,0 -6.523,-2.658 -6.972,-6.143c-10.941,-85.938 -44.039,-150.513 -96.706,-193.482c-52.805,-43.073 -125.111,-64.402 -213.845,-64.402c-162.592,0 -270.792,67.37 -270.792,191.411c0,67.025 33.271,110.374 88.527,141.436c57.051,32.028 137.018,51.149 228.479,69.096l0.035,0c243.388,49.043 464.688,109.822 464.688,391.727c0,235.174 -190.617,367.705 -460.892,367.705Zm1257.909,-31.2l0,-1233.853c0,-3.865 3.141,-7.041 7.006,-7.041l155.31,0c3.9,0 7.041,3.175 7.041,7.041l0,1233.853c0,3.9 -3.141,7.041 -7.041,7.041l-155.31,0c-3.865,0 -7.006,-3.141 -7.006,-7.041Zm2930.185,0l0,-1233.853c0,-3.865 3.141,-7.041 7.006,-7.041l155.31,0c3.9,0 7.041,3.175 7.041,7.041l0,517.563l645.158,0l0,-517.563c0,-3.865 3.141,-7.041 7.006,-7.041l155.31,0c3.9,0 7.041,3.175 7.041,7.041l0,1233.853c0,3.9 -3.141,7.041 -7.041,7.041l-155.31,0c-3.865,0 -7.006,-3.141 -7.006,-7.041l0,-576.235l-645.158,0l0,576.235c0,3.9 -3.141,7.041 -7.041,7.041l-155.31,0c-3.865,0 -7.006,-3.141 -7.006,-7.041Zm1753.279,-1097.525l0,-136.328c0,-3.865 3.141,-7.041 7.006,-7.041l976.728,0c3.9,0 7.041,3.175 7.041,7.041l0,136.328c0,3.9 -3.141,7.041 -7.041,7.041l-403.668,0l0,1090.484c0,3.9 -3.141,7.041 -7.041,7.041l-155.31,0c-3.865,0 -7.006,-3.141 -7.006,-7.041l0,-1090.484l-403.703,0c-3.865,0 -7.006,-3.141 -7.006,-7.041Z" style="fill:#33383f;"/></g><g><g><g><g><g transform="matrix(1,0,0,0.925926,-0,194.664693)"><text x="2015.868px" y="2627.973px" style="font-family:'HaasGrotDispTrial-55Roman', 'Haas Grot Disp Trial', sans-serif;font-size:349.984px;fill:#33383f;">A</text></g><g transform="matrix(1,0,0,0.925926,-0,194.664693)"><text x="2370.402px" y="2627.973px" style="font-family:'HaasGrotDispTrial-55Roman', 'Haas Grot Disp Trial', sans-serif;font-size:349.984px;fill:#33383f;">N<tspan x="2740.685px 3095.219px 3382.828px 3734.653px 4075.887px 4283.428px 4659.311px " y="2627.973px 2627.973px 2627.973px 2627.973px 2627.973px 2627.973px 2627.973px ">ALYTICS</tspan></text></g></g></g></g><g><g><g><g transform="matrix(1,0,0,0.925926,-0,194.640689)"><text x="9878.474px" y="2627.649px" style="font-family:'HaasGrotDispTrial-55Roman', 'Haas Grot Disp Trial', sans-serif;font-size:349.984px;fill:#33383f;">S</text></g><g transform="matrix(1,0,0,0.925926,0,194.640689)"><text x="10213.969px" y="2627.649px" style="font-family:'HaasGrotDispTrial-55Roman', 'Haas Grot Disp Trial', sans-serif;font-size:349.984px;fill:#33383f;">T<tspan x="10555.203px 10911.837px 11237.203px 11578.437px 11919.013px 12293.482px " y="2627.649px 2627.649px 2627.649px 2627.649px 2627.649px 2627.649px ">RATEGY</tspan></text></g></g></g></g><g><g><g><g transform="matrix(1,0,0,0.925926,-0,194.664693)"><text x="6013.5px" y="2627.973px" style="font-family:'HaasGrotDispTrial-55Roman', 'Haas Grot Disp Trial', sans-serif;font-size:349.984px;fill:#33383f;">R</text></g><g transform="matrix(1,0,0,0.925926,-0,194.664693)"><text x="6370.133px" y="2627.973px" style="font-family:'HaasGrotDispTrial-55Roman', 'Haas Grot Disp Trial', sans-serif;font-size:349.984px;fill:#33383f;">E<tspan x="6712.327px 7059.161px 7407.836px 7762.369px 8119.003px 8494.886px " y="2627.973px 2627.973px 2627.973px 2627.973px 2627.973px 2627.973px ">SEARCH</tspan></text></g></g></g></g><g><circle cx="5451.372" cy="2517.92" r="60.418" style="fill:#b08d57;"/></g><g><circle cx="9300.597" cy="2517.92" r="60.418" style="fill:#b08d57;"/></g></g><g><rect x="6698.426" y="1953.536" width="1133.333" height="29.629" style="fill:#b08d57;"/></g></g></svg>
