<?xml version="1.0" encoding="UTF-8" standalone="no"?>
<!DOCTYPE svg PUBLIC "-//W3C//DTD SVG 1.1//EN" "http://www.w3.org/Graphics/SVG/1.1/DTD/svg11.dtd">
<svg width="100%" height="100%" viewBox="0 0 4000 3000" version="1.1" xmlns="http://www.w3.org/2000/svg" xmlns:xlink="http://www.w3.org/1999/xlink" xml:space="preserve" xmlns:serif="http://www.serif.com/" style="fill-rule:evenodd;clip-rule:evenodd;stroke-linejoin:round;stroke-miterlimit:2;">
    <g transform="matrix(1,0,0,1,0,-3050)">
        <rect id="Artboard2" x="0" y="3050" width="4000" height="3000" style="fill:none;"/>
        <g id="Artboard21" serif:id="Artboard2">
            <g transform="matrix(8.283209,0,0,8.283209,-4733.717169,-3121.221836)">
                <path d="M681.473,897.173L670.567,928.36C670.539,928.442 670.462,928.497 670.375,928.497L665.775,928.497C665.709,928.497 665.646,928.464 665.608,928.41C665.57,928.355 665.561,928.285 665.584,928.223L678.734,892.473C678.764,892.393 678.84,892.339 678.925,892.339L683.975,892.339C684.06,892.339 684.137,892.393 684.166,892.473L697.366,928.223C697.389,928.285 697.38,928.355 697.342,928.409C697.304,928.464 697.242,928.497 697.175,928.497L692.275,928.497C692.188,928.497 692.111,928.441 692.082,928.359L681.473,897.173ZM771.873,897.173L760.967,928.36C760.939,928.442 760.862,928.497 760.775,928.497L756.175,928.497C756.109,928.497 756.046,928.464 756.008,928.41C755.97,928.355 755.961,928.285 755.984,928.223L769.134,892.473C769.164,892.393 769.24,892.339 769.325,892.339L774.375,892.339C774.46,892.339 774.537,892.393 774.566,892.473L787.766,928.223C787.789,928.285 787.78,928.355 787.742,928.409C787.704,928.464 787.642,928.497 787.575,928.497L782.675,928.497C782.588,928.497 782.511,928.441 782.482,928.359L771.873,897.173ZM914.872,924.077C912.239,927.537 908.436,929.247 903.825,929.247C893.66,929.247 886.822,921.518 886.822,910.543C886.822,904.176 888.994,898.631 893.182,895.211C895.977,892.929 899.672,891.589 904.225,891.589C912.643,891.589 917.81,896.161 918.976,903.26C918.986,903.319 918.969,903.379 918.93,903.425C918.892,903.47 918.835,903.497 918.775,903.497L914.125,903.497C914.029,903.497 913.946,903.429 913.926,903.335C912.946,898.682 909.66,895.897 904.125,895.897C900.743,895.897 898.099,896.907 896.146,898.653C893.203,901.282 891.829,905.568 891.829,910.543C891.829,919.162 896.834,924.939 903.975,924.939C907.581,924.939 910.232,923.72 911.979,921.758C913.729,919.793 914.572,917.09 914.572,914.143L914.572,913.497L904.025,913.497C903.913,913.497 903.822,913.406 903.822,913.293L903.822,909.393C903.822,909.281 903.913,909.189 904.025,909.189L919.275,909.189C919.388,909.189 919.479,909.281 919.479,909.393L919.479,928.293C919.479,928.406 919.388,928.497 919.275,928.497L915.077,928.497C914.964,928.497 914.873,928.406 914.873,928.293L914.872,924.077ZM617.722,928.293L617.722,892.543C617.722,892.431 617.813,892.339 617.925,892.339L630.925,892.339C635.28,892.339 638.718,893.527 641.278,895.64C645.11,898.804 646.979,904.053 646.979,910.543C646.979,915.95 645.595,920.432 642.86,923.564C640.119,926.704 636.019,928.497 630.575,928.497L617.925,928.497C617.813,928.497 617.722,928.406 617.722,928.293ZM622.629,924.139L630.425,924.139C633.727,924.139 636.237,923.297 638.058,921.749C640.798,919.421 641.972,915.512 641.972,910.543C641.972,905.571 640.922,901.552 638.279,899.137C636.526,897.535 634.074,896.647 630.775,896.647L622.629,896.647L622.629,924.139ZM712.322,896.493L712.322,892.543C712.322,892.431 712.413,892.339 712.525,892.339L740.825,892.339C740.938,892.339 741.029,892.431 741.029,892.543L741.029,896.493C741.029,896.606 740.938,896.697 740.825,896.697L729.129,896.697L729.129,928.293C729.129,928.406 729.038,928.497 728.925,928.497L724.425,928.497C724.313,928.497 724.222,928.406 724.222,928.293L724.222,896.697L712.525,896.697C712.413,896.697 712.322,896.606 712.322,896.493ZM822.175,929.197C817.088,929.197 813.331,927.772 810.794,925.443C808.249,923.108 806.925,919.86 806.722,916.204C806.719,916.148 806.739,916.094 806.777,916.053C806.816,916.012 806.869,915.989 806.925,915.989L811.325,915.989C811.43,915.989 811.518,916.069 811.528,916.173C811.822,919.137 812.868,921.393 814.675,922.906C816.487,924.423 819.058,925.189 822.375,925.189C827.194,925.189 830.672,923.026 830.672,918.693C830.672,916.329 829.633,914.87 827.824,913.832C825.963,912.765 823.307,912.137 820.132,911.442L820.131,911.442C813.728,910.019 808.272,908.153 808.272,901.293C808.272,895.284 813.241,891.639 820.625,891.639C825.164,891.639 828.369,892.802 830.556,894.792C832.746,896.786 833.92,899.614 834.377,902.966C834.385,903.024 834.367,903.083 834.329,903.127C834.29,903.171 834.234,903.197 834.175,903.197L829.925,903.197C829.823,903.197 829.736,903.12 829.723,903.019C829.406,900.529 828.447,898.658 826.921,897.413C825.391,896.165 823.296,895.547 820.725,895.547C816.014,895.547 812.879,897.499 812.879,901.093C812.879,903.035 813.843,904.291 815.444,905.191C817.097,906.119 819.414,906.673 822.064,907.193L822.065,907.193C829.117,908.614 835.529,910.375 835.529,918.543C835.529,925.357 830.006,929.197 822.175,929.197ZM858.622,928.293L858.622,892.543C858.622,892.431 858.713,892.339 858.825,892.339L863.325,892.339C863.438,892.339 863.529,892.431 863.529,892.543L863.529,928.293C863.529,928.406 863.438,928.497 863.325,928.497L858.825,928.497C858.713,928.497 858.622,928.406 858.622,928.293ZM943.522,928.293L943.522,892.543C943.522,892.431 943.613,892.339 943.725,892.339L948.225,892.339C948.338,892.339 948.429,892.431 948.429,892.543L948.429,907.539L967.122,907.539L967.122,892.543C967.122,892.431 967.213,892.339 967.325,892.339L971.825,892.339C971.938,892.339 972.029,892.431 972.029,892.543L972.029,928.293C972.029,928.406 971.938,928.497 971.825,928.497L967.325,928.497C967.213,928.497 967.122,928.406 967.122,928.293L967.122,911.597L948.429,911.597L948.429,928.293C948.429,928.406 948.338,928.497 948.225,928.497L943.725,928.497C943.613,928.497 943.522,928.406 943.522,928.293ZM994.322,896.493L994.322,892.543C994.322,892.431 994.413,892.339 994.525,892.339L1022.825,892.339C1022.938,892.339 1023.029,892.431 1023.029,892.543L1023.029,896.493C1023.029,896.606 1022.938,896.697 1022.825,896.697L1011.129,896.697L1011.129,928.293C1011.129,928.406 1011.038,928.497 1010.925,928.497L1006.425,928.497C1006.313,928.497 1006.222,928.406 1006.222,928.293L1006.222,896.697L994.525,896.697C994.413,896.697 994.322,896.606 994.322,896.493Z" style="fill:rgb(176,141,87);"/>
            </g>
            <g transform="matrix(1,0,0,1,109.604335,3416.292709)">
                <g transform="matrix(1.555484,0,0,1.555484,-286.469167,-166.738321)">
                    <g transform="matrix(1.08,0,0,1,-50.334088,0)">
                        <g transform="matrix(50,0,0,50,1038.127949,1018.619576)">
                        </g>
                        <text x="629.176px" y="1018.62px" style="font-family:'HaasGrotDispTrial-55Roman', 'Haas Grot Disp Trial', sans-serif;font-size:50px;fill:rgb(176,141,87);">A<tspan x="679.826px 732.726px 783.376px 824.465px 874.728px 923.478px 953.128px 1006.828px " y="1018.62px 1018.62px 1018.62px 1018.62px 1018.62px 1018.62px 1018.62px 1018.62px ">NALYTICS</tspan></text>
                    </g>
                </g>
                <g transform="matrix(1.555484,0,0,1.555484,1600.556316,-166.816095)">
                    <g transform="matrix(1.08,0,0,1,-50.334088,0)">
                        <g transform="matrix(50,0,0,50,1005.742764,1018.619576)">
                        </g>
                        <text x="629.176px" y="1018.62px" style="font-family:'HaasGrotDispTrial-55Roman', 'Haas Grot Disp Trial', sans-serif;font-size:50px;fill:rgb(176,141,87);">S<tspan x="677.106px 725.856px 776.806px 823.289px 872.039px 920.695px 974.193px " y="1018.62px 1018.62px 1018.62px 1018.62px 1018.62px 1018.62px 1018.62px ">TRATEGY</tspan></text>
                    </g>
                </g>
                <g transform="matrix(1.555484,0,0,1.555484,672.962393,-166.738321)">
                    <g transform="matrix(1.08,0,0,1,-50.334088,0)">
                        <g transform="matrix(50,0,0,50,1018.476097,1018.619576)">
                        </g>
                        <text x="629.176px" y="1018.62px" style="font-family:'HaasGrotDispTrial-55Roman', 'Haas Grot Disp Trial', sans-serif;font-size:50px;fill:rgb(176,141,87);">R<tspan x="680.126px 729.013px 778.563px 828.376px 879.026px 929.976px 983.676px " y="1018.62px 1018.62px 1018.62px 1018.62px 1018.62px 1018.62px 1018.62px ">ESEARCH</tspan></text>
                    </g>
                </g>
                <g transform="matrix(0.821125,0,0,0.821125,307.592914,4.382302)">
                    <circle cx="1472.531" cy="1689.041" r="17.659" style="fill:white;"/>
                </g>
                <g transform="matrix(0.821125,0,0,0.821125,1231.407012,4.382302)">
                    <circle cx="1472.531" cy="1689.041" r="17.659" style="fill:white;"/>
                </g>
            </g>
            <g transform="matrix(0.416539,0,0,1,1194.179728,3392.247416)">
                <rect x="1756" y="1279.889" width="653" height="7.111" style="fill:white;"/>
            </g>
        </g>
    </g>
</svg>
